<?xml version="1.0" encoding="iso-8859-1"?>
<!-- Generator: Adobe Illustrator 16.0.0, SVG Export Plug-In . SVG Version: 6.00 Build 0)  -->
<!DOCTYPE svg PUBLIC "-//W3C//DTD SVG 1.1//EN" "http://www.w3.org/Graphics/SVG/1.1/DTD/svg11.dtd">
<!-- License: CC0. Made by SVG Repo: https://www.svgrepo.com/svg/103152/melting-heart -->
<svg version="1.1" id="Capa_1" xmlns="http://www.w3.org/2000/svg" xmlns:xlink="http://www.w3.org/1999/xlink" x="0px" y="0px"
	 width="181.221px" height="181.222px" viewBox="0 0 181.221 181.222" style="enable-background:new 0 0 181.221 181.222;"
	 xml:space="preserve">
<g>
	<path d="M170.317,37.733C165.612-14.811,100.978-5.755,90.61,24.15C80.243-5.749,15.606-14.811,10.904,37.739
		c-3.322,37.055,20.936,63.751,43.547,80.33l-0.018,0.006c0,0,0.157,0.106,0.207,0.137c1.525,1.117,3.044,2.187,4.546,3.209
		c4.563,3.512,11.228,9.451,14.422,16.272c6.41,13.695-7.734,33.479,6.756,41.931c8.382,4.895,23.292-1.631,18.637-17.235
		c-0.807-2.689,0.065-11.083,4.655-11.875c5.36-0.934,6.005,7.271,11.649,5.822c8.151-2.093,3.032-17.177,5.539-21.669
		c3.646-6.555,5.408-2.719,10.071-4.889c6.053-2.818,2.796-13.748,12.892-26.249v-0.006
		C159.902,87.292,172.799,65.393,170.317,37.733z M45.36,94.433C24.286,78.92,5.076,20.034,46.002,13.357
		C25.539,32.987,28.305,72.317,45.36,94.433z"/>
</g>
</svg>
