<?xml version="1.0" ?>

<!-- License: CC Attribution. Made by iconperk: http://iconperk.com/ -->
<svg fill="#000000" width="800px" height="800px" viewBox="0 0 64 64" xmlns="http://www.w3.org/2000/svg">

<g id="vampire">

<path d="M6.7,47.4561a1,1,0,0,0-1.4141,0l-.7668.7669-.7669-.7669a1,1,0,1,0-1.414,1.414l.7669.7671-.7669.7671a1,1,0,1,0,1.414,1.4141l.7669-.767.7668.767A1,1,0,1,0,6.7,50.4043l-.767-.7671L6.7,48.87A1,1,0,0,0,6.7,47.4561Z"/>

<path d="M61.4985,19.1333a1,1,0,0,0-1.0014.0024l-7.0479,4.0992a23.9927,23.9927,0,0,0-8.0626-9.14,12.384,12.384,0,0,0-.5184-9.5906,1,1,0,0,0-1.8545.6607c.48,2.8806-1.1947,4.9824-2.8057,6.2944a23.8986,23.8986,0,0,0-17.0768.2418c-1.7-1.2949-3.6532-3.4861-3.1449-6.5362a1,1,0,0,0-1.8545-.6607A11.5722,11.5722,0,0,0,16.876,9.3276a12.351,12.351,0,0,0,.9465,5.3229,24.0756,24.0756,0,0,0-7.2644,8.5712L3.5488,19.1362A1,1,0,0,0,2.0454,20v9.2725A8.7078,8.7078,0,0,0,8.2725,37.58a23.8857,23.8857,0,0,0,27.758,20.0617A3.7382,3.7382,0,0,0,43,55.75a2.7381,2.7381,0,0,0-.0562-.3983,23.8805,23.8805,0,0,0,12.7823-17.76A8.7052,8.7052,0,0,0,62,29.2725V20A1,1,0,0,0,61.4985,19.1333ZM60,29.2725A6.7465,6.7465,0,0,1,54.6064,35.82a1,1,0,0,0-.7744.8555A21.8883,21.8883,0,0,1,42.2475,53.46,23.0194,23.0194,0,0,0,40.03,50.1743a1.0347,1.0347,0,0,0-1.5606,0c-.69.8617-2.9217,3.7833-2.9625,5.5245A21.8689,21.8689,0,0,1,10.167,36.667a.9994.9994,0,0,0-.77-.855,6.7451,6.7451,0,0,1-5.3516-6.5395V21.74l6.4458,3.7569a1,1,0,0,0,1.4165-.4561A22.0659,22.0659,0,0,1,18.74,16.4631,16.668,16.668,0,0,0,21.293,19.707a1,1,0,0,0,1.0234.2417A5.3807,5.3807,0,0,0,26,14.8379V14a.9993.9993,0,0,0-.606-.9189c-.0038-.0018-.0319-.0141-.0792-.0361a22.2192,22.2192,0,0,1,12.7523-.1878c-.25.1285-.4246.2079-.4626.2243A1.0018,1.0018,0,0,0,37,14v.8379a5.3807,5.3807,0,0,0,3.6836,5.1108,1,1,0,0,0,1.0234-.2417,16.2676,16.2676,0,0,0,2.8452-3.756,21.9956,21.9956,0,0,1,7.5625,9.14.9855.9855,0,0,0,1.1216.5484.9672.9672,0,0,0,.4366-.2207L60,21.7383Z"/>

<path d="M56,54a3,3,0,1,0,3,3A3.0033,3.0033,0,0,0,56,54Zm0,4a1,1,0,1,1,1-1A1.0013,1.0013,0,0,1,56,58Z"/>

<circle cx="59" cy="46" r="1"/>

<circle cx="39" cy="31" r="2"/>

<circle cx="25" cy="31" r="2"/>

<path d="M27.5537,28.7837a1.09,1.09,0,0,0,.1192.0068,1,1,0,0,0,.1162-1.9931c-.0352-.0039-3.5572-.4742-4.46-2.4815a1,1,0,0,0-1.8242.82C22.8813,28.1968,27.3638,28.7612,27.5537,28.7837Z"/>

<path d="M42.0815,23.814a1.0012,1.0012,0,0,0-1.3222.5019c-.7559,1.6812-3.4771,2.3613-4.4614,2.482a1,1,0,0,0,.1181,1.9926,1.0876,1.0876,0,0,0,.1187-.0068c.19-.0225,4.6728-.5869,6.0488-3.6475A1,1,0,0,0,42.0815,23.814Z"/>

<path d="M39.3413,36.3765A20.2411,20.2411,0,0,0,24.66,36.376c-2.2466.9326-3.3062,4.1264-2.2676,6.8359,1.8472,4.8208,5.5288,7.8159,9.6079,7.8159s7.7612-2.9951,9.6084-7.8159C42.6465,40.5024,41.5869,37.3081,39.3413,36.3765Zm-3.13,1.1051L35.2788,40.59l-.2925-1.7549A1,1,0,0,0,34,38H30a1,1,0,0,0-.9863.8354l-.2925,1.7554-.9326-3.1092a17.6629,17.6629,0,0,1,8.4227,0Z"/>

<path d="M10.4473,32.1055a6.9174,6.9174,0,0,1-3.1661-4.0493l1.1641.7758a1,1,0,1,0,1.1094-1.664l-3-2A1,1,0,0,0,5,26a8.8989,8.8989,0,0,0,4.5527,7.8945,1,1,0,0,0,.8946-1.789Z"/>

<path d="M55.5547,28.832l1.167-.7778a6.8592,6.8592,0,0,1-3.1729,4.0532,1,1,0,0,0,.8985,1.7871A8.8989,8.8989,0,0,0,59,26a1,1,0,0,0-1.5547-.832l-3,2a1,1,0,1,0,1.1094,1.664Z"/>

</g>

</svg>